<svg xmlns="http://www.w3.org/2000/svg" xmlns:xlink="http://www.w3.org/1999/xlink" width="500" zoomAndPan="magnify" viewBox="0 0 375 374.999991" height="500" preserveAspectRatio="xMidYMid meet" version="1.0"><defs><clipPath id="id1"><path d="M 48.046875 0.0117188 L 327.042969 0.0117188 L 327.042969 374.996094 L 48.046875 374.996094 Z M 48.046875 0.0117188 " clip-rule="nonzero"/></clipPath></defs><path fill="rgb(3.919983%, 0%, 78.42865%)" d="M 117.332031 48.765625 L 118.597656 50.664062 L 117.585938 48.621094 Z M 117.332031 48.765625 " fill-opacity="1" fill-rule="nonzero"/><path fill="rgb(13.729858%, 12.159729%, 12.548828%)" d="M 117.585938 48.621094 L 117.332031 48.765625 L 118.597656 50.664062 L 117.585938 48.621094 " fill-opacity="1" fill-rule="nonzero"/><g clip-path="url(#id1)"><path fill="rgb(28.62854%, 25.489807%, 90.979004%)" d="M 116.800781 0.0117188 L 48.046875 65.375 L 48.046875 307.730469 L 116.800781 374.996094 L 258.289062 374.996094 L 327.042969 308.71875 L 327.042969 65.375 L 257.292969 0.0117188 L 116.800781 0.0117188 " fill-opacity="1" fill-rule="nonzero"/></g><path fill="rgb(28.62854%, 25.489807%, 90.979004%)" d="M 117.34375 0.0117188 L 50.058594 64.425781 L 50.058594 303.261719 L 117.34375 369.550781 L 255.816406 369.550781 L 323.105469 304.238281 L 323.105469 64.425781 L 254.84375 0.0117188 L 117.34375 0.0117188 " fill-opacity="1" fill-rule="nonzero"/><path fill="rgb(65.879822%, 64.309692%, 100%)" d="M 105.769531 271.460938 C 105.769531 271.460938 94.890625 281.367188 79.507812 290.148438 C 64.121094 298.929688 50.058594 303.261719 50.058594 303.261719 C 50.058594 303.261719 60.9375 293.355469 76.320312 284.574219 C 91.707031 275.792969 105.769531 271.460938 105.769531 271.460938 " fill-opacity="1" fill-rule="nonzero"/><path fill="rgb(65.879822%, 64.309692%, 100%)" d="M 138.320312 312.523438 C 138.320312 312.523438 136.589844 326.316406 130.929688 342.0625 C 125.265625 357.8125 117.824219 369.550781 117.824219 369.550781 C 117.824219 369.550781 119.558594 355.757812 125.21875 340.011719 C 130.878906 324.265625 138.320312 312.523438 138.320312 312.523438 " fill-opacity="1" fill-rule="nonzero"/><path fill="rgb(65.879822%, 64.309692%, 100%)" d="M 268.035156 270.601562 C 268.035156 270.601562 282.046875 275.375 297.253906 284.664062 C 312.460938 293.953125 323.105469 304.238281 323.105469 304.238281 C 323.105469 304.238281 309.089844 299.460938 293.886719 290.175781 C 278.679688 280.886719 268.035156 270.601562 268.035156 270.601562 " fill-opacity="1" fill-rule="nonzero"/><path fill="rgb(65.879822%, 64.309692%, 100%)" d="M 233.429688 312.523438 C 233.429688 312.523438 241.296875 324.167969 247.480469 339.917969 C 253.660156 355.664062 255.816406 369.550781 255.816406 369.550781 C 255.816406 369.550781 247.949219 357.90625 241.765625 342.15625 C 235.585938 326.410156 233.429688 312.523438 233.429688 312.523438 " fill-opacity="1" fill-rule="nonzero"/><path fill="rgb(65.879822%, 64.309692%, 100%)" d="M 105.773438 97.011719 C 105.773438 97.011719 91.707031 92.683594 76.320312 83.898438 C 60.9375 75.117188 50.058594 65.210938 50.058594 65.210938 C 50.058594 65.210938 64.121094 69.542969 79.507812 78.324219 C 94.890625 87.105469 105.773438 97.011719 105.773438 97.011719 " fill-opacity="1" fill-rule="nonzero"/><path fill="rgb(65.879822%, 64.309692%, 100%)" d="M 140.503906 60.0625 C 140.503906 60.0625 132.289062 47.851562 125.847656 31.355469 C 119.40625 14.859375 117.171875 0.316406 117.171875 0.316406 C 117.171875 0.316406 125.386719 12.523438 131.828125 29.019531 C 138.273438 45.519531 140.503906 60.0625 140.503906 60.0625 " fill-opacity="1" fill-rule="nonzero"/><path fill="rgb(65.879822%, 64.309692%, 100%)" d="M 268.035156 99.625 C 268.035156 99.625 278.527344 88.945312 293.660156 79.15625 C 308.792969 69.363281 322.835938 64.167969 322.835938 64.167969 C 322.835938 64.167969 312.34375 74.847656 297.210938 84.640625 C 282.078125 94.429688 268.035156 99.625 268.035156 99.625 " fill-opacity="1" fill-rule="nonzero"/><path fill="rgb(65.879822%, 64.309692%, 100%)" d="M 234.089844 58.441406 C 234.089844 58.441406 235.867188 44.308594 241.667969 28.171875 C 247.46875 12.039062 255.097656 0.0117188 255.097656 0.0117188 C 255.097656 0.0117188 253.320312 14.140625 247.519531 30.277344 C 241.71875 46.410156 234.089844 58.441406 234.089844 58.441406 " fill-opacity="1" fill-rule="nonzero"/><path fill="rgb(65.879822%, 64.309692%, 100%)" d="M 234.089844 58.441406 C 234.089844 58.441406 242.042969 67.722656 254.34375 82.089844 C 257.417969 85.679688 260.835938 89.675781 264.570312 94.050781 C 265.503906 95.144531 266.460938 96.261719 267.433594 97.40625 L 268.167969 98.261719 L 268.539062 98.695312 L 268.722656 98.914062 L 268.769531 98.96875 C 268.585938 98.425781 269.074219 99.765625 269.023438 99.65625 L 269.023438 99.800781 L 269.0625 102.117188 C 269.117188 105.238281 269.171875 108.480469 269.226562 111.835938 C 269.445312 125.265625 269.679688 140.554688 269.917969 157.460938 C 270.152344 174.363281 270.386719 192.878906 270.605469 212.757812 C 270.71875 222.695312 270.824219 232.972656 270.925781 243.5625 C 270.976562 248.859375 271.023438 254.226562 271.070312 259.671875 C 271.09375 262.394531 271.117188 265.136719 271.140625 267.894531 L 271.160156 269.96875 L 271.164062 270.488281 C 270.839844 271.417969 271.886719 268.589844 270.441406 272.601562 L 270.355469 272.703125 L 270.191406 272.90625 L 269.539062 273.710938 L 266.902344 276.957031 C 259.855469 285.632812 252.625 294.515625 245.230469 303.585938 L 239.65625 310.421875 L 236.84375 313.863281 L 236.140625 314.726562 C 230.726562 317.308594 234.558594 315.441406 233.316406 316.019531 L 233.175781 316.019531 L 232.894531 316.023438 L 232.339844 316.023438 L 230.101562 316.039062 C 224.128906 316.066406 218.101562 316.097656 212.019531 316.121094 C 199.855469 316.175781 187.472656 316.214844 174.90625 316.242188 C 168.625 316.253906 162.296875 316.265625 155.925781 316.273438 L 146.339844 316.28125 L 138.355469 316.28125 C 132.695312 313.789062 136.730469 315.527344 135.441406 314.941406 L 135.238281 314.714844 L 134.433594 313.816406 C 125.839844 304.195312 117.359375 294.679688 109.011719 285.292969 L 102.773438 278.273438 L 101.222656 276.53125 L 100.449219 275.660156 L 100.351562 275.546875 C 101.160156 277.703125 99.132812 272.496094 99.351562 272.972656 L 99.351562 272.683594 L 99.355469 272.101562 L 99.367188 267.453125 C 99.386719 261.269531 99.414062 255.132812 99.4375 249.054688 C 99.539062 224.730469 99.6875 201.269531 99.863281 178.921875 C 100.039062 156.570312 100.246094 135.332031 100.464844 115.453125 C 100.519531 110.484375 100.578125 105.601562 100.632812 100.804688 L 100.675781 97.226562 L 100.6875 96.335938 L 100.691406 95.890625 C 102.027344 92.585938 101.109375 94.929688 101.425781 94.171875 L 107.855469 87.742188 C 114.382812 81.21875 120.652344 74.964844 126.644531 68.996094 C 129.636719 66.011719 132.5625 63.101562 135.410156 60.261719 L 137.535156 58.152344 L 138.585938 57.105469 L 138.652344 57.039062 C 139.199219 56.800781 137.519531 57.480469 139.898438 56.492188 L 140.082031 56.492188 L 140.449219 56.5 L 141.1875 56.515625 C 143.144531 56.550781 145.074219 56.585938 146.980469 56.621094 C 154.597656 56.761719 161.777344 56.898438 168.496094 57.03125 C 181.925781 57.296875 193.496094 57.539062 202.953125 57.75 C 221.863281 58.164062 234.089844 58.441406 234.089844 58.441406 C 234.089844 58.441406 221.863281 58.636719 202.949219 58.921875 C 193.492188 59.070312 181.921875 59.234375 168.488281 59.410156 C 161.769531 59.496094 154.585938 59.589844 146.96875 59.675781 C 145.066406 59.699219 143.132812 59.722656 141.175781 59.746094 L 140.441406 59.753906 L 140.070312 59.757812 L 139.886719 59.761719 C 142.207031 58.777344 140.492188 59.527344 140.996094 59.324219 L 140.929688 59.390625 L 139.910156 60.46875 L 137.851562 62.640625 C 135.082031 65.5625 132.246094 68.554688 129.332031 71.621094 C 123.511719 77.753906 117.410156 84.171875 111.050781 90.859375 L 106.226562 95.917969 L 105.007812 97.199219 L 104.855469 97.363281 L 104.777344 97.441406 C 105.054688 96.742188 104.050781 99.125 105.378906 95.890625 L 105.382812 96.335938 L 105.394531 97.226562 L 105.4375 100.804688 C 105.496094 105.601562 105.550781 110.484375 105.605469 115.453125 C 105.828125 135.332031 106.03125 156.570312 106.207031 178.921875 C 106.382812 201.269531 106.53125 224.730469 106.632812 249.054688 C 106.660156 255.132812 106.683594 261.269531 106.703125 267.453125 L 106.71875 272.101562 L 106.71875 272.972656 C 106.910156 273.5625 104.984375 268.414062 105.847656 270.644531 L 105.945312 270.75 L 106.726562 271.621094 L 108.285156 273.355469 L 114.558594 280.339844 C 122.945312 289.691406 131.449219 299.1875 140.042969 308.804688 L 140.847656 309.710938 L 141.046875 309.933594 C 139.835938 309.402344 143.902344 311.285156 138.355469 308.769531 L 146.339844 308.769531 L 155.925781 308.777344 C 162.296875 308.785156 168.625 308.792969 174.90625 308.808594 C 187.472656 308.835938 199.855469 308.875 212.019531 308.929688 C 218.101562 308.953125 224.128906 308.984375 230.101562 309.011719 L 232.339844 309.027344 L 233.175781 309.027344 L 233.316406 309.03125 C 232.15625 309.585938 236.109375 307.78125 230.75 310.28125 L 231.460938 309.425781 L 234.3125 306.011719 L 239.96875 299.242188 C 247.472656 290.265625 254.824219 281.484375 262.007812 272.921875 L 264.695312 269.71875 L 265.363281 268.921875 L 265.53125 268.722656 L 265.613281 268.625 C 264.203125 272.5625 265.226562 269.640625 264.910156 270.488281 L 264.914062 269.96875 L 264.929688 267.894531 C 264.953125 265.136719 264.976562 262.394531 265 259.671875 C 265.050781 254.226562 265.097656 248.859375 265.148438 243.5625 C 265.25 232.972656 265.355469 222.695312 265.464844 212.757812 C 265.6875 192.878906 265.921875 174.363281 266.15625 157.460938 C 266.390625 140.554688 266.625 125.265625 266.847656 111.835938 C 266.902344 108.480469 266.957031 105.238281 267.007812 102.117188 L 267.046875 99.800781 L 267.050781 99.65625 C 267.007812 99.496094 267.46875 100.796875 267.25 100.21875 L 267.207031 100.164062 L 267.027344 99.941406 L 266.675781 99.496094 L 265.96875 98.609375 C 265.035156 97.4375 264.121094 96.285156 263.226562 95.160156 C 259.644531 90.65625 256.375 86.542969 253.4375 82.835938 C 241.679688 68.023438 234.089844 58.441406 234.089844 58.441406 " fill-opacity="1" fill-rule="nonzero"/></svg>